# xmcd
# 
# Track frame offsets:
#     150
#     17327
#     27645
#     45422
#     63682
#     83165
#     94920
#     114022
#     127497
#     142595
#     159575
# 
# Disc length: 2331
# 
# Revision: 11
# Processed by: cddbd v1.5.2PL0 Copyright (c) Steve Scherf et al.
# Submitted via: fre:ac v1.1beta1pre5
# 
DISCID=8909190b
DTITLE=Franz Ferdinand - Franz Ferdinand
DYEAR=2004
DGENRE=Indie Rock
TTITLE0=Jacqueline
TTITLE1=Tell Her Tonight
TTITLE2=Take Me Out
TTITLE3=The Dark of the Matinee
TTITLE4=Auf Achse
TTITLE5=Cheating on You
TTITLE6=This Fire
TTITLE7=Darts of Pleasure
TTITLE8=Michael
TTITLE9=Come on Home
TTITLE10=40'
EXTD=
EXTT0=
EXTT1=
EXTT2=
EXTT3=
EXTT4=
EXTT5=
EXTT6=
EXTT7=
EXTT8=
EXTT9=
EXTT10=
PLAYORDER=
